<svg id="Layer_1" height="512" viewBox="0 0 48 48" width="512" xmlns="http://www.w3.org/2000/svg" data-name="Layer 1"><path d="m.75 0a.75.75 0 0 0 -.75.75v46.5a.75.75 0 0 0 1.5 0v-46.5a.75.75 0 0 0 -.75-.75z"/><path d="m12.375 0a.75.75 0 0 0 -.75.75v46.5a.75.75 0 0 0 1.5 0v-46.5a.75.75 0 0 0 -.75-.75z"/><path d="m24 0a.75.75 0 0 0 -.75.75v46.5a.75.75 0 0 0 1.5 0v-46.5a.75.75 0 0 0 -.75-.75z"/><path d="m35.625 0a.75.75 0 0 0 -.75.75v46.5a.75.75 0 0 0 1.5 0v-46.5a.75.75 0 0 0 -.75-.75z"/><path d="m47.25 0a.75.75 0 0 0 -.75.75v46.5a.75.75 0 0 0 1.5 0v-46.5a.75.75 0 0 0 -.75-.75z"/><path d="m32.887 34.39h-6.016a.75.75 0 0 0 -.75.75v3.56a.75.75 0 0 0 .75.75h6.016a.75.75 0 0 0 .75-.75v-3.56a.75.75 0 0 0 -.75-.75zm-.75 3.559h-4.516v-2.059h4.516z"/><path d="m22.354 21.066a6.469 6.469 0 0 1 -1.917-1.605l-.007-.01a14.16 14.16 0 0 1 -2.984-8.628c0-4.516 2.538-6.019 4.668-6.484a.75.75 0 0 0 -.32-1.466c-3.716.813-5.848 3.71-5.848 7.95a15.992 15.992 0 0 0 3.205 9.439v2.093l-1.463 1.32-3.541 1.864a.75.75 0 1 0 .7 1.327l2.213-1.166-.96 4.564a.751.751 0 0 0 .92.881l2.05-.525 2.368 1.947a.75.75 0 1 0 .954-1.158l-2.659-2.189a.747.747 0 0 0 -.662-.147l-1.252.32.986-4.705.779-.7 1.632 4.384a.75.75 0 0 0 1.406-.523l-1.971-5.293v-.815a6.793 6.793 0 0 0 1.014.66.75.75 0 1 0 .689-1.332z"/><path d="m10.419 43.546-3.252-.365 1.086-11.657a2.381 2.381 0 0 1 1.272-1.9l.9-.468a.75.75 0 1 0 -.69-1.332l-.906.469a3.878 3.878 0 0 0 -2.074 3.089l-1.155 12.393a.749.749 0 0 0 .664.814l.341.039-.286 2.538a.749.749 0 0 0 .665.834.615.615 0 0 0 .085 0 .749.749 0 0 0 .744-.666l.287-2.534 2.152.241a.606.606 0 0 0 .085 0 .75.75 0 0 0 .083-1.495z"/><path d="m39.164 28.3-.9-.468a.75.75 0 1 0 -.69 1.332l.9.467a2.382 2.382 0 0 1 1.274 1.9l1.086 11.657-3.252.365a.75.75 0 0 0 .083 1.495.606.606 0 0 0 .085 0l2.15-.248.286 2.539a.749.749 0 0 0 .744.666.615.615 0 0 0 .086-.005.749.749 0 0 0 .661-.829l-.286-2.538.341-.039a.749.749 0 0 0 .664-.814l-1.155-12.39a3.877 3.877 0 0 0 -2.077-3.09z"/><path d="m33.853 25.539-3.541-1.864-1.463-1.32v-2.093a15.992 15.992 0 0 0 3.205-9.439c0-4.24-2.132-7.137-5.848-7.95a.759.759 0 0 0 -.893.573.751.751 0 0 0 .573.893c2.13.465 4.668 1.968 4.668 6.484a14.16 14.16 0 0 1 -2.984 8.628l-.007.01a6.469 6.469 0 0 1 -1.917 1.605.75.75 0 1 0 .689 1.332 6.793 6.793 0 0 0 1.014-.66v.815l-1.971 5.293a.75.75 0 0 0 1.406.523l1.632-4.384.779.7.986 4.705-1.252-.32a.752.752 0 0 0 -.662.147l-2.667 2.192a.75.75 0 0 0 .954 1.158l2.368-1.947 2.05.525a.751.751 0 0 0 .92-.881l-.952-4.564 2.213 1.165a.75.75 0 1 0 .7-1.327z"/></svg>