<?xml version="1.0" encoding="UTF-8"?><svg xmlns="http://www.w3.org/2000/svg" id="Layer_1" data-name="Layer 1" viewBox="0 0 64 64" width="512" height="512"><path d="M20,36A11,11,0,1,0,31,47,11,11,0,0,0,20,36Zm0,20a9,9,0,1,1,9-9A9,9,0,0,1,20,56Z"/><path d="M51,50a4,4,0,1,0,4,4A4,4,0,0,0,51,50Zm0,6a2,2,0,1,1,2-2A2,2,0,0,1,51,56Z"/><path d="M18,27.5v4.65A15,15,0,1,0,29,59h15.8A8,8,0,0,0,59,54a7.87,7.87,0,0,0-1-3.86v-12A4.18,4.18,0,0,0,53.82,34H52V27.5a2.51,2.51,0,0,0-1.91-2.42l1.68-1.22A4.34,4.34,0,0,0,47,16.64l-6.1,3.67a1.08,1.08,0,0,1-1.32-.17L38,18.57a8.78,8.78,0,0,0-15,6.21V25H21V18.46a4.47,4.47,0,0,0-3.12-4.25A3,3,0,0,0,15,12H8a3,3,0,0,0,0,6h7a3,3,0,0,0,2.7-1.71A2.45,2.45,0,0,1,19,18.46v7.05A2.51,2.51,0,0,0,18,27.5ZM15,16H8a1,1,0,0,1,0-2h7a1,1,0,0,1,0,2ZM7,47A13,13,0,1,1,20,60,13,13,0,0,1,7,47ZM31.15,57A15,15,0,0,0,20,32V27.5a.5.5,0,0,1,.5-.5h29a.5.5,0,0,1,.5.5V46.07A8,8,0,0,0,43,54a7.9,7.9,0,0,0,.59,3ZM51,60a6,6,0,1,1,6-6A6,6,0,0,1,51,60Zm2.82-24A2.19,2.19,0,0,1,56,38.18v9.58a8,8,0,0,0-4-1.69V36ZM25,24.78A6.77,6.77,0,0,1,36.57,20l1.57,1.57a3.1,3.1,0,0,0,3.77.47L48,18.36a2.34,2.34,0,0,1,3,.53,2.38,2.38,0,0,1,.51,1.46,2.3,2.3,0,0,1-1,1.89L46.79,25H25Z"/><path d="M38,8a6,6,0,1,0-6,6A6,6,0,0,0,38,8ZM28,8a4,4,0,1,1,4,4A4,4,0,0,1,28,8Z"/></svg>