<svg id="svg9960" height="512" viewBox="0 0 16.933333 16.933334" width="512" xmlns="http://www.w3.org/2000/svg" xmlns:svg="http://www.w3.org/2000/svg"><g id="layer1" transform="translate(0 -280.067)"><path id="path3912" d="m3.9692674 280.59632c-.7283211 0-1.3224007.59356-1.322398 1.32189v12.17238c0 .72832.5940769 1.32188 1.322398 1.32188.3606959.008.3606959-.53717 0-.52916-.4443147 0-.7953004-.3484-.7953004-.79272 0-.44431.350983-.7953.7953004-.7953 3.2631381.00053 6.5243656 0 9.7885516 0v1.32447c0 .15115-.112392.26354-.263551.26355h-5.2926992c-.360696-.008-.360696.53717 0 .52916h5.2926992c.43516 0 .793234-.35755.793234-.79271v-1.58802-11.6427c0-.43516-.358072-.79272-.793234-.79272zm0 .52917h9.5250006c.151156 0 .263551.11239.263551.26355v11.37708h-9.7885516c-.2995268 0-.5731933.10455-.7953004.27389v-11.1218c0-.44432.3509857-.79272.7953004-.79272zm4.4968844 2.63963c-.146177.002-.262614.12151-.260966.26768v.54157c-.8918998.0585-1.1834971.50709-1.8515674.51677-.2459752 0-.5106988-.0975-.6082321-.18759-.2708699-.25006-.6086819.14743-.3725863.37517.1745351.16837.4446958.26312.5927302.29663l-.9131247 2.05517c-.014579.0339-.021616.0706-.021193.10749 0 0-.0037.31878.1601972.64647.163838.32769.5063226.67541 1.1616876.67541.6553623 0 .9983576-.34772 1.1622034-.67541.1638511-.32769.1596791-.64647.1596791-.64647.000529-.0369-.0066-.0736-.02119-.10749l-.9126039-2.05362c.5410279-.0859.8588059-.4844 1.7249589-.48576v.002c.869511 0 1.18714.39971 1.7290912.48576l-.9126052 2.05362c-.01458.0339-.02172.0706-.02119.10749 0 0-.0041.31878.159678.64647.163846.32769.506842.67541 1.1622032.67541.655365 0 .99785-.34772 1.161685-.67541.163907-.32769.160198-.64647.160198-.64647.000529-.0369-.0066-.0736-.02119-.10749l-.91313-2.05517c.148029-.0335.418195-.12826.59273-.29662.236093-.22775-.101717-.62524-.372586-.37517-.09754.09-.362257.18758-.608232.18758-.6680702-.01-.9596682-.4583-1.8515672-.51676v-.54157c.0016-.14622-.114792-.26608-.260967-.26768v-.001c-.0016-.00001-.0027-.001-.0041-.001zm.0031 1.85157c-.132323 0-.264067.0882-.264067.26458v3.7083h-1.0717732c-.3572139.0243-.3329199.53791.012409.52917.8837952-.00015 1.7609952.002 2.6448012.002.3452972.009.3695942-.5049.01241-.52917h-1.071779v-3.7083c0-.17503-.129715-.26267-.260967-.26407v-.003zm-2.1161502.39067.6500892 1.46451h-1.2996669zm4.2302324.002.649573 1.46451h-1.2996662zm-4.9764395 1.99212h1.49293s-.09326.52917-.746207.52917c-.6529467 0-.746723-.52917-.746723-.52917zm4.2297143.002h1.4929322s-.09378.52917-.746723.52917c-.6529522 0-.7462092-.52917-.7462092-.52917zm-5.8673422 5.82083c-.3531209 0-.3531209.52968 0 .52968h2.909906v1.21492l-.6071976-.60772c-.1032034-.10256-.2699014-.10256-.3731048 0l-.6077135.60772v-.4222c0-.35286-.5291667-.35286-.5291667 0v1.05885c-.00159.23759.2864776.35686.4532021.18759l.871265-.87127.8707464.87127c.1668648.16589.4510008.0477.4511358-.18759v-1.85166h5.5567657c.353121 0 .353121-.52968 0-.52968z" font-variant-ligatures="normal" font-variant-position="normal" font-variant-caps="normal" font-variant-numeric="normal" font-variant-alternates="normal" font-feature-settings="normal" text-indent="0" text-align="start" text-decoration-line="none" text-decoration-style="solid" text-decoration-color="rgb(0,0,0)" text-transform="none" text-orientation="mixed" white-space="normal" shape-padding="0" isolation="auto" mix-blend-mode="normal" solid-color="rgb(0,0,0)" solid-opacity="1" vector-effect="none"/></g></svg>