<svg id="Capa_1" enable-background="new 0 0 508.115 508.115" height="512" viewBox="0 0 508.115 508.115" width="512" xmlns="http://www.w3.org/2000/svg"><g><path d="m408.771 53.508c-3.255-2.562-7.971-2-10.532 1.256s-1.999 7.971 1.256 10.532c44.283 34.847 73.936 83.19 85.048 136.979-12.36-12.416-29.458-20.11-48.32-20.11-22.162 0-41.886 10.625-54.357 27.042-1.575-23.041-5.349-50.594-14.409-78.766-15.683-48.768-43.181-86.761-81.931-113.33 30.348 4.081 59.693 14.032 86.215 29.375 3.585 2.074 8.173.849 10.248-2.737 2.074-3.585.849-8.173-2.737-10.248-37.887-21.917-81.179-33.501-125.194-33.501-66.878 0-129.753 26.044-177.045 73.335-47.291 47.292-73.335 110.167-73.335 177.045 0 4.142 3.358 7.5 7.5 7.5s7.5-3.358 7.5-7.5c0-29.342 23.876-53.214 53.225-53.214 29.343 0 53.215 23.872 53.215 53.214 0 4.142 3.358 7.5 7.5 7.5s7.5-3.358 7.5-7.5c0-29.342 23.877-53.214 53.225-53.214 15.796 0 29.999 6.926 39.754 17.891v233.857c0 8.738-7.104 15.847-15.847 15.847-8.732 0-15.836-7.109-15.836-15.847v-6.634c0-27.105-41.922-27.62-41.922-.355v8.426c0 31.851 25.913 57.764 57.764 57.764s57.763-25.913 57.763-57.764v-235.291c9.757-10.968 23.964-17.894 39.765-17.894 29.342 0 53.214 23.872 53.214 53.214 0 4.142 3.358 7.5 7.5 7.5s7.5-3.358 7.5-7.5c0-29.342 23.877-53.214 53.226-53.214 29.342 0 53.214 23.872 53.214 53.214 0 4.142 3.358 7.5 7.5 7.5s7.5-3.358 7.5-7.5c0-77.272-34.87-149.028-95.667-196.872zm-160.674 201.41c1.37 1.797 3.527 2.961 5.961 2.961s4.591-1.165 5.961-2.961v155.277h-11.922zm-54.754-72.752c-20.701 0-39.277 9.269-51.8 23.871 1.523-19.228 4.675-41.34 11.215-63.874 1.155-3.978-1.134-8.139-5.112-9.293-3.978-1.155-8.139 1.134-9.293 5.112-7.393 25.473-10.655 50.254-12.095 71.234-12.468-16.422-32.192-27.05-54.355-27.05-18.837 0-35.915 7.671-48.272 20.055 20.191-96.729 99.941-171.856 199.001-185.13-31.282 21.459-55.306 50.424-71.627 86.439-1.709 3.773-.037 8.217 3.736 9.927 1.004.455 2.056.67 3.091.67 2.854 0 5.581-1.638 6.836-4.406 17.734-39.136 45.253-69.302 81.89-89.833v187.832c-12.328-16.164-33.093-25.554-53.215-25.554zm66.676 268.186c0 23.58-19.184 42.764-42.764 42.764s-42.763-19.184-42.763-42.764v-8.426c0-7.849 11.922-7.665 11.922.355v6.634c0 17.009 13.833 30.847 30.847 30.847 17.003 0 30.836-13.838 30.836-30.847v-23.719h11.922zm54.764-268.186c-20.112 0-40.9 9.39-53.226 25.552v-187.841c81.426 45.567 100.558 128.509 105.054 186.204-12.52-14.628-31.109-23.915-51.828-23.915z"/><path d="m96.806 395.057c4.142 0 7.5-3.358 7.5-7.5v-6.163c11.025-2.273 20.811-11.716 20.222-23.54-.579-11.614-10.341-18.067-20.222-21.807v-14.972c3.456 1.34 5.779 3.163 5.902 3.262 3.17 2.631 7.875 2.212 10.53-.946 2.665-3.171 2.255-7.902-.916-10.567-.384-.323-6.54-5.4-15.517-7.384v-6.318c0-4.142-3.358-7.5-7.5-7.5s-7.5 3.358-7.5 7.5v6.595c-9.093 2.454-16.204 10.002-16.647 19.613-.529 11.452 7.295 17.022 16.647 20.9v19.005c-2.785-1.165-5.266-2.862-7.194-4.99-2.781-3.069-7.524-3.303-10.594-.521-3.069 2.782-3.303 7.524-.521 10.594 4.708 5.196 11.207 8.897 18.309 10.619v6.622c.001 4.14 3.359 7.498 7.501 7.498zm12.671-35.369c-.469 2.631-2.895 4.887-5.171 5.998 0-4.46 0-8.919 0-13.379 2.532 1.376 5.772 4.018 5.171 7.381zm-20.212-29.778c-2.536-2.003-2.018-5.617.041-7.649 0 1.077-.513 7.442-.041 7.649z"/><path d="m156.04 381.74c-3.215-2.611-7.94-2.122-10.55 1.092-11.973 14.739-29.718 23.192-48.684 23.192-34.565 0-62.686-28.121-62.686-62.686s28.121-62.686 62.686-62.686 62.686 28.121 62.686 62.686c0 3.282-.255 6.577-.759 9.793-.641 4.092 2.157 7.929 6.249 8.57 4.091.639 7.929-2.157 8.57-6.249.624-3.982.94-8.058.94-12.114 0-42.836-34.85-77.686-77.686-77.686s-77.686 34.85-77.686 77.686 34.85 77.686 77.686 77.686c23.504 0 45.492-10.473 60.326-28.734 2.612-3.215 2.122-7.938-1.092-10.55z"/><path d="m428.649 275.09h-61.568c-16.485 0-29.896 13.411-29.896 29.896v76.706c0 16.485 13.412 29.896 29.896 29.896h61.568c16.485 0 29.896-13.412 29.896-29.896v-76.706c0-16.485-13.411-29.896-29.896-29.896zm14.896 106.601c0 8.214-6.683 14.896-14.896 14.896h-61.568c-8.214 0-14.896-6.683-14.896-14.896v-76.706c0-8.214 6.683-14.896 14.896-14.896h61.568c8.214 0 14.896 6.682 14.896 14.896z"/><path d="m376.326 328.401h28.973c4.142 0 7.5-3.358 7.5-7.5s-3.358-7.5-7.5-7.5h-28.973c-4.142 0-7.5 3.358-7.5 7.5s3.358 7.5 7.5 7.5z"/><path d="m418.799 343.899h-42.474c-4.142 0-7.5 3.358-7.5 7.5s3.358 7.5 7.5 7.5h42.474c4.142 0 7.5-3.358 7.5-7.5s-3.358-7.5-7.5-7.5z"/></g></svg>