<svg height="512" viewBox="0 0 32 32" width="512" xmlns="http://www.w3.org/2000/svg"><g id="Layer_10" data-name="Layer 10"><path d="m29.65 28.08a2.34 2.34 0 0 0 1.84-2.29 2.32 2.32 0 0 0 -.58-1.53 1.85 1.85 0 0 0 .11-.63 1.87 1.87 0 1 0 -3.75 0 1.85 1.85 0 0 0 .11.63 2.31 2.31 0 0 0 -.58 1.53 2.34 2.34 0 0 0 1.84 2.29v2.17h-2.15v-20.72l-12.49-5.11v4.7l-11.55-4.7v25.82h-1.95v1h30.5v-1h-1.35zm-1.84-2.29a1.33 1.33 0 0 1 .5-1l.35-.28-.24-.38a.87.87 0 1 1 1.47 0l-.24.38.34.28a1.34 1.34 0 1 1 -2.18 1zm-12.81-19.88 10.52 4.29v18.1h-10.52zm-1 5.8h-1.6v1h1.6v2.48h-1.6v1h1.6v2.48h-1.6v1h1.6v2.9h-1.6v1h1.6v2.75h-4.75v-.75h1.49v-1h-1.49v-2.65h1.49v-1h-1.49v-2.65h1.49v-1h-1.49v-2.64h1.49v-1h-1.49v-2.63h1.49v-1h-1.49v-1.72l4.75 1.93zm-6.8 15.6v2.93h-1.11v-2.92zm1 0h1.05v2.93h-1.08zm2.08 0h1.08v2.93h-1.11zm-2-19.45v18.46h-4.83v-20.41zm-4.83 19.46h1.64v2.93h-1.64zm8.88 2.93v-2.93h1.67v2.93zm2.64 0v-.94h10.52v.94z"/><path d="m4.47 12.9h1.78v1h-1.78z"/><path d="m4.47 15.19h1.78v1h-1.78z"/><path d="m4.47 17.48h1.78v1h-1.78z"/><path d="m4.47 19.77h1.78v1h-1.78z"/><path d="m4.47 22.06h1.78v1h-1.78z"/><path d="m21.88 12.9h1.78v1h-1.78z"/><path d="m21.88 15.19h1.78v1h-1.78z"/><path d="m21.88 17.48h1.78v1h-1.78z"/><path d="m21.88 19.77h1.78v1h-1.78z"/><path d="m21.88 22.06h1.78v1h-1.78z"/><path d="m21.88 24.35h1.78v1h-1.78z"/><path d="m16.8 12.9h1.78v1h-1.78z"/><path d="m16.8 15.19h1.78v1h-1.78z"/><path d="m16.8 17.48h1.78v1h-1.78z"/><path d="m16.8 19.77h1.78v1h-1.78z"/><path d="m16.8 22.06h1.78v1h-1.78z"/><path d="m16.8 24.35h1.78v1h-1.78z"/><path d="m4.47 24.35h1.78v1h-1.78z"/></g></svg>