<?xml version="1.0"?><svg xmlns="http://www.w3.org/2000/svg" id="Icons" viewBox="0 0 60 60" width="512" height="512"><path d="M2.17,32.166A19.145,19.145,0,0,0,19.075,60c.3,0,.6-.008.9-.022A18.814,18.814,0,0,0,30,56.469a18.944,18.944,0,0,0,24.119-1.733,2.006,2.006,0,0,0-.622-3.3h0l-2.046-.843a2,2,0,0,0-2.06.335,12.982,12.982,0,0,1-15.046,1.237,18.826,18.826,0,0,0,2.808-5.54A2.006,2.006,0,0,0,36,44.205l-1.864-.771a2,2,0,0,0-1.628.045A1.974,1.974,0,0,0,31.462,44.7,12.835,12.835,0,0,1,30,47.905a12.867,12.867,0,0,1-1.956-5.8,2,2,0,0,0-1.224-1.694l-2.051-.847a2,2,0,0,0-2.765,1.913c.005.187.013.373.023.557a18.839,18.839,0,0,0,3.611,10.126A12.985,12.985,0,0,1,7.565,34.826a1.991,1.991,0,0,0-1-2.789l-1.87-.77A2,2,0,0,0,2.17,32.166Zm31.2,13.116,1.873.751a16.878,16.878,0,0,1-2.509,4.951,12.917,12.917,0,0,1-1.455-1.409A14.748,14.748,0,0,0,33.37,45.282Zm-9.345-3.357c-.009-.168-.016-.336-.02-.515l2.047.862a15.019,15.019,0,0,0,6.224,10.921h0c.019.014.036.029.055.042a14.969,14.969,0,0,0,18.357-.8l2.046.843,0,.009a16.98,16.98,0,0,1-22.133,1.152,16.325,16.325,0,0,1-2.742-2.658A16.88,16.88,0,0,1,24.025,41.925ZM4.1,42.774A14.966,14.966,0,0,0,26.9,53.726a18.321,18.321,0,0,0,1.467,1.457,16.823,16.823,0,0,1-8.493,2.8A17.006,17.006,0,0,1,3.935,33.115l1.872.758A14.953,14.953,0,0,0,4.1,42.774Z"/><path d="M5.827,27.543A2,2,0,0,0,7.042,29.07l2.1.864a2.008,2.008,0,0,0,1.975-.267,12.971,12.971,0,0,1,14.53-.832,18.86,18.86,0,0,0-2.567,4.841,1.99,1.99,0,0,0,1.134,2.493l1.856.766a2.018,2.018,0,0,0,1.6-.025,1.944,1.944,0,0,0,1.049-1.146A12.909,12.909,0,0,1,30,33.1a12.988,12.988,0,0,1,1.881,5.152,1.982,1.982,0,0,0,1.207,1.587l2.1.867a2.007,2.007,0,0,0,2.768-1.987,18.86,18.86,0,0,0-3.6-9.875,12.984,12.984,0,0,1,17.9,17.648,1.022,1.022,0,0,0,.469,1.47L55.6,49.142a2.037,2.037,0,0,0,.77.153,1.977,1.977,0,0,0,1.791-1.126A19.168,19.168,0,0,0,59.987,39.3,18.975,18.975,0,0,0,30,24.527,18.975,18.975,0,0,0,23.7,21.6l4.869-6.242a2.017,2.017,0,0,0-.216-2.73l-4.1-3.82A2.981,2.981,0,0,0,22.211,8H15.789a2.985,2.985,0,0,0-2.046.806l-4.1,3.821a2.018,2.018,0,0,0-.215,2.73L14.3,21.6a18.883,18.883,0,0,0-7.826,4.124A1.977,1.977,0,0,0,5.827,27.543Zm21.009,7.543-1.867-.746a16.869,16.869,0,0,1,2.293-4.326,12.818,12.818,0,0,1,1.455,1.407A14.757,14.757,0,0,0,26.836,35.086Zm13.21-12.06A17.008,17.008,0,0,1,56.362,47.292L54.5,46.526A14.976,14.976,0,0,0,33.1,27.275a18.673,18.673,0,0,0-1.467-1.458A16.821,16.821,0,0,1,40.046,23.026ZM29.4,26.556a16.325,16.325,0,0,1,2.742,2.658,16.84,16.84,0,0,1,3.816,9.64l-2.089-.876A15,15,0,0,0,20.943,25.135l1.4-1.8A16.962,16.962,0,0,1,29.4,26.556ZM20,23.092V15h6.313Zm3.107-12.621L25.8,13H21.082ZM20.922,10,19,12.4,17.078,10Zm-6.031.469L16.918,13h-4.74ZM11.716,15H18v8.084Zm3.941,8.342,1.4,1.794a14.838,14.838,0,0,0-7.152,2.949l-2.113-.863A16.845,16.845,0,0,1,15.657,23.342Z"/><path d="M53.86,0h0a5.983,5.983,0,0,0-4.368,1.9L49,2.416,48.514,1.9a5.944,5.944,0,0,0-4.333-1.9h-.054A5.974,5.974,0,0,0,39.78,1.9a6.658,6.658,0,0,0,0,9.048l8.155,8.589a1.462,1.462,0,0,0,2.13,0l8.156-8.59A6.509,6.509,0,0,0,60,6.423,6.569,6.569,0,0,0,58.222,1.9,5.97,5.97,0,0,0,53.86,0ZM48.447,13.1A1.979,1.979,0,0,0,48,14.35V16.7L41.232,9.574a4.631,4.631,0,0,1,0-6.293,4,4,0,0,1,2.908-1.275h.034a3.964,3.964,0,0,1,2.891,1.273L48,4.267V8a2,2,0,0,0,2,2h.924ZM58,6.427a4.514,4.514,0,0,1-1.23,3.146L50,16.7V14.355l2.564-3.206A1.944,1.944,0,0,0,51.04,8H50V4.269l.939-.99A4,4,0,0,1,53.856,2h0a3.99,3.99,0,0,1,2.913,1.281A4.542,4.542,0,0,1,58,6.419Z"/></svg>