<svg enable-background="new 0 0 512 512" height="512" viewBox="0 0 512 512" width="512" xmlns="http://www.w3.org/2000/svg"><g id="_x31_671_x2C__Ball_x2C__Beach_x2C__Plastic_x2C__Sea_x2C__Summer"><g><path d="m131.027 120.103c-39.181 16.151-68.73 61.424-68.73 105.312 0 5.628 4.567 10.195 10.195 10.195 5.633 0 10.195-4.567 10.195-10.195 0-35.516 24.648-73.492 56.11-86.461 5.205-2.142 7.685-8.103 5.543-13.308-2.146-5.21-8.108-7.69-13.313-5.543z"/><path d="m490.48 480.285h-140.468c81.968-37.434 140.469-123.133 140.469-224.291 0-135.17-104.948-244.67-234.478-244.67-130.055 0-234.485 110.019-234.485 244.67 0 65.274 24.334 126.658 68.521 172.857 21.063 22.019 45.442 39.326 71.958 51.434h-140.48c-5.628 0-10.195 4.566-10.195 10.195 0 5.633 4.567 10.194 10.195 10.194h468.963c5.638 0 10.2-4.562 10.2-10.194.001-5.628-4.562-10.195-10.2-10.195zm-303.915-12.117c5.772-16.302 12.446-30.565 19.897-42.494 30.904-49.501 68.165-49.525 99.084 0 7.44 11.929 14.114 26.192 19.892 42.494-44.038 15.862-93.237 16.44-138.873 0zm15.006-353.873c13.487 15.998 28.463 25.694 44.237 28.613v226.183c-15.773 2.914-30.75 12.61-44.231 28.608-22.453-82.492-22.732-200.14-.006-283.404zm108.856 0c22.591 82.731 22.611 200.559.01 283.409-13.487-15.997-28.458-25.699-44.236-28.613v-226.183c15.767-2.919 30.748-12.616 44.226-28.613zm159.664 141.7c0 90.724-51.678 169.032-125.807 204.324-5.539-15.454-11.884-29.285-18.937-41.278 29.733-91.605 30.043-233.539 0-326.076 7.063-12.013 13.408-25.869 18.956-41.348 76.769 36.297 125.788 115.327 125.788 204.378zm-144.633-212.218c-5.777 16.326-12.462 30.6-19.912 42.543-30.909 49.501-68.16 49.526-99.084 0-7.456-11.943-14.14-26.217-19.917-42.543 44.331-15.938 93.7-16.256 138.913 0zm-283.551 212.218c0-89.051 49.022-168.081 125.792-204.378 5.543 15.484 11.898 29.335 18.956 41.348-29.614 91.228-29.609 229.794-1.569 321.126.458 1.484 1.225 2.784 2.207 3.859-7.307 12.242-13.866 26.446-19.568 42.369-74.136-35.293-125.818-113.6-125.818-204.324z"/><path d="m21.517 439.505h20.39v20.39h-20.39z"/><path d="m62.297 439.505h20.39v20.39h-20.39z"/><path d="m429.32 439.505h20.39v20.39h-20.39z"/><path d="m470.091 439.505h20.39v20.39h-20.39z"/></g></g></svg>