<svg id="Layer_1" height="512" viewBox="0 0 48 48" width="512" xmlns="http://www.w3.org/2000/svg" data-name="Layer 1"><path d="m13.829 25.612-.815-1.365a2.748 2.748 0 0 0 -3.77-.953 2.755 2.755 0 0 0 -.953 3.771l3.747 6.28a.752.752 0 0 0 1.028.26l3.436-2.05a.753.753 0 0 0 .259-1.03zm-.889 6.317-3.363-5.635a1.253 1.253 0 0 1 1.071-1.894 1.308 1.308 0 0 1 .309.039 1.245 1.245 0 0 1 .767.573l.432.723-.982.586a.75.75 0 0 0 .385 1.394.736.736 0 0 0 .383-.107l.982-.586 2.163 3.624z"/><path d="m8.428 39.275a.75.75 0 0 0 .674-.419l1.766-3.588a.75.75 0 0 0 -.342-1l-5.132-2.529-1.429-.7a2.75 2.75 0 1 0 -2.428 4.931l6.563 3.23a.735.735 0 0 0 .328.075zm-6.228-4.651a1.25 1.25 0 0 1 1.1-2.243l.757.372-.505 1.026a.749.749 0 0 0 .342 1 .735.735 0 0 0 .33.077.747.747 0 0 0 .673-.419l.5-1.026 3.787 1.863-1.1 2.243z"/><path d="m14.942 39.377a2.725 2.725 0 0 0 -2.105-.05l-6.819 2.639a.75.75 0 0 0 -.43.97l1.444 3.73a.75.75 0 0 0 .7.48.735.735 0 0 0 .268-.046l6.82-2.638a2.75 2.75 0 0 0 .12-5.08zm-.661 3.682-.786.3-.412-1.059a.75.75 0 0 0 -1.4.541l.417 1.059-3.94 1.526-.9-2.332 6.12-2.368a1.252 1.252 0 0 1 1.62.715 1.254 1.254 0 0 1 -.719 1.618z"/><path d="m45.268 23.75a4.726 4.726 0 0 1 .848-.425c.687-.294 1.281-.548 1.481-1.1.206-.571.355-.972.356-.974a.751.751 0 0 0 -.382-.939l-2.041-.969.326-.689a.749.749 0 0 0 -.356-1l-6.683-3.17a.755.755 0 0 0 -.65 0l-1.414.69-25.507-12.1-.118-.874a.748.748 0 0 0 -.421-.578l-3.269-1.55a.751.751 0 0 0 -1 .357l-3.861 8.14a.749.749 0 0 0 .356 1l8.493 4.03-.029.059a.75.75 0 0 0 .357 1l7.3 3.463-1.2 2.521a4.367 4.367 0 0 0 2.072 5.811l7.38 3.5-2.42 12.436a2.2 2.2 0 0 0 1.427 2.488l8.613 3.023a1.9 1.9 0 0 0 .62.1 1.879 1.879 0 0 0 1.854-1.592l3.2-20.817a.75.75 0 0 0 -1.483-.229l-.506 3.292-5.411-2.568a.755.755 0 0 0 -1.028.425 3.143 3.143 0 0 1 -1.181 1.365 7.02 7.02 0 0 1 -.789.418.75.75 0 0 0 .612 1.369 8.68 8.68 0 0 0 1-.531 4.815 4.815 0 0 0 1.386-1.383l5.17 2.453-2.453 15.979a.377.377 0 0 1 -.5.3l-8.612-3.018a.694.694 0 0 1 -.45-.785l2.532-13.008a.748.748 0 0 0 -.415-.821l-7.902-3.749a2.866 2.866 0 0 1 -1.359-3.814l1.518-3.2a.751.751 0 0 0 -.357-1l-7.3-3.463 1.093-2.3 29.269 13.883c-.044 1.426.917 2.685 2.773 3.529l-.783.453-3.839-1.439a.75.75 0 0 0 -.526 1.4l4.17 1.563a.749.749 0 0 0 .638-.053l1.09-.629a1.44 1.44 0 0 0 .72-1.29 1.464 1.464 0 0 0 -.812-1.263c-1.011-.5-2.158-1.357-1.883-2.588.074-.328.165-.737.286-1.139zm-33.2-11.508-7.815-3.708 3.22-6.785 2.227 1.051.117.873a.749.749 0 0 0 .422.578l26.2 12.432a.757.757 0 0 0 .649 0l1.414-.69 5.68 2.695-.327.688a.751.751 0 0 0 .356 1l2.1 1c-.028.076-.057.157-.088.243a5.632 5.632 0 0 1 -.7.332c-.719.309-1.464.627-1.67 1.293-.046.149-.083.3-.123.448l-29.596-14.049-7.3-3.461a.75.75 0 0 0 -.643 1.355l6.619 3.14z"/><path d="m28.946 21.133-2.3-1.091-4.082-1.942a.751.751 0 0 0 -1 .357l-1.189 2.506a2.966 2.966 0 0 0 1.407 3.945l4.383 2.08a3.242 3.242 0 1 0 2.779-5.859zm-7.27 1.594a1.447 1.447 0 0 1 .056-1.118l.867-1.828 3.401 1.619a1.744 1.744 0 1 1 -1.5 3.148l-2.077-.985a1.449 1.449 0 0 1 -.747-.836zm7.455 2.083a1.742 1.742 0 0 1 -2.074.915 3.138 3.138 0 0 0 1.463-3.107 1.73 1.73 0 0 1 .611 2.192z"/></svg>