<svg id="Layer_1" enable-background="new 0 0 64 64" height="512" viewBox="0 0 64 64" width="512" xmlns="http://www.w3.org/2000/svg"><g><path d="m15.9 30.4-5.1-1.1c-1.4-.3-2.7.8-2.7 2.2v2.1c0 1.7 1.3 2.1 2.9 2.1h5.6c1.1 0 2.2-.2 2.2-1.4v-.3c0-1.8-1.2-3.3-2.9-3.6zm-5.9 3.2c0-.1 0-.1 0-2.2 0-.2.2-.4.4-.3l5.1 1.1c.7.2 1.2.8 1.3 1.5-3.5 0-6.5 0-6.8-.1z"/><path d="m61.3 19.7-7.2-3.4c-2.4-1.1-5-1.5-7.5-1l-1.1-2.2c-.8-2-2.7-3.4-4.9-3.4h-23.4c-2.2 0-4.1 1.3-4.9 3.3l-3.9 8.1c-.9-1.3-2.4-2.1-4-2.1h-1.7c-1.5 0-2.7 1.2-2.7 2.7v1.1c0 1.5 1.2 2.7 2.7 2.7h2.6c-1.1 1.4-1.6 3.2-1.6 5v6c0 2.3.8 4.5 2.4 6.4v4.5c0 2 1.6 3.6 3.6 3.6h3.7c2 0 3.6-1.6 3.6-3.6v-1.8h20c4.4 6 11.3 8.6 11.4 8.6.2.1.4.1.7 0 .1-.1 14.9-5.5 14.9-19v-11.2c0-1.8-1.1-3.5-2.7-4.3zm-47.2-5.9c.5-1.3 1.7-2.1 3.1-2.1h23.4c1.4 0 2.6.8 3.2 2.2l.9 1.9c-.4.1-.8.3-1.2.5l-7.2 3.4c-1.6.8-2.7 2.4-2.7 4.2h-24.5c.4-.6 0 .4 5-10.1zm-12.1 9v-1.1c0-.4.3-.7.7-.7h1.7c2 0 2.7 1.8 2.9 2.1-.1.2-.2.3-.4.5h-4.2c-.4-.1-.7-.4-.7-.8zm13 24.5c0 .9-.7 1.6-1.6 1.6h-3.8c-.9.1-1.6-.7-1.6-1.6v-2.9c1.2.7 2.6 1.1 4 1.1h3zm-3.1-3.7c-3.6 0-6.4-3.5-6.4-7.2v-6c0-1.7.7-3.3 1.9-4.6h26.2v8.8h-11c-.5 0-1 .4-1 1s.4 1 1 1h11.1c.1.7.1 1.3.3 1.9h-11.4c-.5 0-1 .4-1 1s.4 1 1 1h11.8c.4 1.1.8 2.2 1.4 3.1zm50.1-8.4c0 11.1-11.2 16.2-13.2 17-7.2-2.9-13.2-9.1-13.2-17 0-3.7 0-5.7 0-11.2 0-1.1.6-2 1.6-2.5l7.2-3.4c2.9-1.4 6.1-1.4 9 0l7.2 3.4c.9.5 1.6 1.4 1.6 2.5v11.2z"/><path d="m58.6 23.8-6.6-3.1c-2-1-4.5-1-6.5 0l-6.5 3.1c-.3.2-.6.5-.6.9v10.5c0 7.9 6.9 12.2 9.9 13.7.3.1.6.1.9 0 3-1.5 9.9-5.8 9.9-13.7v-10.5c0-.4-.2-.7-.5-.9zm-1.4 11.4c0 6.4-5.6 10.2-8.4 11.7-3.3-1.8-8.4-5.4-8.4-11.7v-9.9l6-2.9c1.5-.7 3.3-.7 4.8 0l6 2.9z"/><path d="m44.9 34.9c-.4-.3-1-.2-1.4.2s-.2 1 .2 1.4l3.8 2.9c.4.3 1 .2 1.4-.2l5.6-7.3c.3-.4.2-1-.2-1.4-.4-.3-1-.2-1.4.2l-5 6.5z"/></g></svg>