<svg id="Layer_1" enable-background="new 0 0 480 480" height="512" viewBox="0 0 480 480" width="512" xmlns="http://www.w3.org/2000/svg"><path d="m16.294 398.91v58c0 4.418-3.582 8-8 8s-8-3.582-8-8v-58c0-4.418 3.582-8 8-8s8 3.582 8 8zm115.851-134.364c-.103 4.353-3.664 7.812-7.994 7.812-15.265 0-31.848-8.653-40.877-24.205h-13.692c-29.383 0-53.288 23.905-53.288 53.289v54.09h45.706v-11.622c0-4.418 3.582-8 8-8s8 3.582 8 8v113c0 4.418-3.582 8-8 8s-8-3.582-8-8v-85.379h-54c-5.222 0-9.126-4.964-7.706-10.123v-59.967c0-38.206 31.082-69.289 69.288-69.289h12.336l5.85-17.659c-21.475-12.869-33.847-35.734-33.847-59.559 0-12.82 0-76.251 0-89.012 0-28.029 22.804-50.833 50.833-50.833h109.536c4.418 0 8 3.582 8 8v23.123c0 38.598-31.402 70-70 70h-82.369v38.722c0 30.427 25.901 55.904 58.139 53.074 27.162-2.389 48.438-25.952 48.438-53.644v-15.509c0-4.418 3.582-8 8-8s8 3.582 8 8v15.509c0 23.228-11.424 44.727-30.12 57.681l7.591 25.198c1.543 5.122-2.292 10.31-7.663 10.31-3.438 0-6.614-2.233-7.657-5.694l-6.685-22.192c-14.607 5.613-30.845 6.003-45.522 1.41l-5.946 17.95c5.486 10.347 16.128 17.057 27.84 17.332 4.416.105 7.912 3.77 7.809 8.187zm-62.224-164.333h82.369c29.775 0 54-24.225 54-54v-15.123h-101.536c-19.207 0-34.833 15.626-34.833 34.833zm366.593 136.704c-4.102-1.648-8.758.336-10.408 4.436-1.649 4.099.337 8.759 4.436 10.408 20.325 8.178 33.459 27.62 33.459 49.531v18.618c0 4.418 3.582 8 8 8s8-3.582 8-8v-18.618c-.001-28.477-17.07-53.746-43.487-64.375zm-42.307 10.41c-3.438 0-6.614-2.233-7.657-5.694l-6.687-22.199c-14.033 5.373-30.258 6.176-45.593 1.351l-5.968 18.017c5.495 10.363 16.154 17.086 27.887 17.361 4.417.104 7.913 3.77 7.81 8.187-.103 4.353-3.664 7.812-7.994 7.812-17.32 0-35.732-10.962-43.67-29.718-.757-1.788-.838-3.791-.227-5.634l7.496-22.627c-20.941-12.581-33.908-35.382-33.908-60.152v-30.87c0-4.56 3.832-8.136 8.099-7.999 34.211.406 68.658-4.715 102.07-15.932 13.858-4.651 28.563 5.501 28.563 20.495v34.875c0 22.002-10.598 43.751-30.142 57.237l7.585 25.181c1.543 5.122-2.292 10.309-7.664 10.309zm14.22-92.727v-34.875c0-1.831-.851-3.493-2.334-4.561-3.738-2.688-4.201-.17-27.076 5.741-25.134 6.491-51.108 9.934-77.321 10.255v22.87c0 27.731 21.308 51.329 48.509 53.722 32.287 2.844 58.222-22.7 58.222-53.152zm-131.065 229.147 7.259 22.73c1.344 4.209-.979 8.71-5.188 10.055-4.215 1.344-8.712-.982-10.055-5.188l-6.707-21c-14.788 4.772-30.61 4.729-45.226.04l-5.882 18.066c5.27 10.553 15.838 17.419 27.636 17.714 4.417.11 7.908 3.78 7.797 8.197-.108 4.349-3.668 7.8-7.993 7.8-15.381 0-32.285-8.881-41.084-25.251h-15.919c-17.645 0-32 14.355-32 32v8c0 4.418-3.582 8-8 8s-8-3.582-8-8v-8c0-26.467 21.533-48 48-48h15.191l5.566-17.096c-21.962-12.848-36.757-36.674-36.757-63.904 0-47.823 44.947-83.275 91.569-71.875v-132.873c0-54.932 44.69-99.622 99.623-99.622 54.932 0 99.622 44.69 99.622 99.622v82.148c0 4.418-3.582 8-8 8s-8-3.582-8-8v-82.148c0-46.109-37.513-83.622-83.622-83.622-46.11 0-83.623 37.513-83.623 83.622v138.834c52.096 26.64 54.267 100.095 3.793 129.751zm20.638-63.837c0-31.981-26.019-58-58-58s-58 26.019-58 58 26.019 58 58 58 58-26.018 58-58zm21.706 86.179c-3.942-2.002-8.756-.427-10.755 3.511-2.001 3.939-.429 8.755 3.511 10.755 10.819 5.493 17.538 16.435 17.538 28.555v8c0 4.418 3.582 8 8 8s8-3.582 8-8v-8c0-18.177-10.075-34.586-26.294-42.821zm152.294-50.558h-54v-11.621c0-4.418-3.582-8-8-8s-8 3.582-8 8v113c0 4.418 3.582 8 8 8s8-3.582 8-8v-85.379h46v85.379c0 4.418 3.582 8 8 8s8-3.582 8-8v-93.379c0-4.418-3.582-8-8-8z"/></svg>