<svg width="20" height="25" viewBox="0 0 20 25" fill="none" xmlns="http://www.w3.org/2000/svg">
<path d="M0.856 12.36C0.856 11.784 0.84 10.912 0.808 9.744C0.792 8.416 0.784 7.424 0.784 6.768C0.784 5.664 0.824 4.68 0.904 3.816C0.984 2.792 1.248 2 1.696 1.44C2.16 0.879999 2.752 0.599999 3.472 0.599999C4.208 0.599999 5.008 0.895999 5.872 1.488C9.008 3.616 12.936 6.48 17.656 10.08C18.696 10.864 19.208 11.704 19.192 12.6C19.192 13.48 18.664 14.312 17.608 15.096C15.144 16.952 13.144 18.44 11.608 19.56C9.4 21.176 7.368 22.624 5.512 23.904C4.792 24.4 4.096 24.632 3.424 24.6C2.752 24.568 2.192 24.288 1.744 23.76C1.312 23.248 1.056 22.528 0.976 21.6C0.896 20.688 0.856 19.64 0.856 18.456C0.84 17.736 0.848 16.664 0.88 15.24C0.912 13.96 0.928 13 0.928 12.36H0.856Z" fill="white"/>
</svg>
